<?xml version="1.0" encoding="UTF-8" standalone="no"?>
<!DOCTYPE svg PUBLIC "-//W3C//DTD SVG 1.1//EN" "http://www.w3.org/Graphics/SVG/1.1/DTD/svg11.dtd">
<svg width="100%" height="100%" viewBox="0 0 240 240" version="1.1" xmlns="http://www.w3.org/2000/svg" xmlns:xlink="http://www.w3.org/1999/xlink" xml:space="preserve" xmlns:serif="http://www.serif.com/" style="fill-rule:evenodd;clip-rule:evenodd;stroke-linejoin:round;stroke-miterlimit:2;">
    <g transform="matrix(1.33333,0,0,1.33333,-40,-40)">
        <path d="M170,210L70,210C47.945,210 30,192.055 30,170L30,70C30,47.945 47.945,30 70,30L170,30C192.055,30 210,47.945 210,70L210,170C210,192.055 192.055,210 170,210Z" style="fill:url(#_Linear1);fill-rule:nonzero;"/>
    </g>
    <g transform="matrix(1.40989,0,0,1.40798,-49.1874,-48.957)">
        <path d="M170,77.5L70,77.5C68.985,77.5 67.97,77.645 66.8,77.955C65.935,78.185 65.26,78.86 65.03,79.72C64.8,80.585 65.045,81.505 65.675,82.135L104.795,121.26C108.85,125.315 114.25,127.55 120,127.55C125.75,127.55 131.15,125.315 135.205,121.265L174.325,82.14C174.955,81.51 175.205,80.585 174.97,79.725C174.74,78.86 174.06,78.19 173.2,77.96C172.03,77.645 171.015,77.5 170,77.5ZM179.63,84.94C178.975,84.94 178.335,85.195 177.86,85.67L145.305,118.23C144.33,119.205 144.33,120.79 145.305,121.765L177.86,154.32C178.335,154.795 178.975,155.05 179.63,155.05C179.845,155.05 180.065,155.02 180.28,154.965C181.145,154.735 181.815,154.055 182.045,153.195C182.355,152.03 182.5,151.015 182.5,150L182.5,90C182.5,88.985 182.355,87.97 182.045,86.8C181.815,85.935 181.14,85.26 180.28,85.03C180.065,84.97 179.845,84.94 179.63,84.94ZM60.37,84.94C60.155,84.94 59.935,84.97 59.72,85.025C58.855,85.255 58.185,85.935 57.955,86.795C57.645,87.97 57.5,88.985 57.5,90L57.5,150C57.5,151.015 57.645,152.03 57.955,153.2C58.185,154.065 58.86,154.74 59.72,154.97C59.935,155.03 60.155,155.055 60.37,155.055C61.025,155.055 61.665,154.8 62.14,154.325L94.695,121.77C95.67,120.795 95.67,119.21 94.695,118.235L62.14,85.675C61.665,85.2 61.025,84.94 60.37,84.94ZM139.95,124.52C139.33,124.52 138.71,124.75 138.225,125.21C133.25,129.94 126.78,132.545 120,132.545C113.22,132.545 106.745,129.94 101.775,125.21C101.29,124.75 100.67,124.52 100.05,124.52C99.41,124.52 98.77,124.765 98.28,125.25L65.67,157.86C65.04,158.49 64.79,159.415 65.025,160.275C65.26,161.135 65.935,161.81 66.795,162.04C67.97,162.355 68.985,162.5 70,162.5L170,162.5C171.015,162.5 172.03,162.355 173.2,162.045C174.065,161.815 174.74,161.14 174.97,160.28C175.2,159.42 174.955,158.495 174.325,157.865L141.715,125.255C141.23,124.765 140.59,124.52 139.95,124.52Z" style="fill:rgb(187,205,255);fill-rule:nonzero;"/>
    </g>
    <defs>
        <linearGradient id="_Linear1" x1="0" y1="0" x2="1" y2="0" gradientUnits="userSpaceOnUse" gradientTransform="matrix(1.09584e-14,-178.965,178.965,1.09584e-14,120,210)"><stop offset="0" style="stop-color:rgb(26,200,252);stop-opacity:1"/><stop offset="0.26" style="stop-color:rgb(27,182,250);stop-opacity:1"/><stop offset="0.78" style="stop-color:rgb(28,134,245);stop-opacity:1"/><stop offset="1" style="stop-color:rgb(29,112,242);stop-opacity:1"/></linearGradient>
    </defs>
</svg>
